<svg width="368" height="245" viewBox="0 0 368 245" fill="none" xmlns="http://www.w3.org/2000/svg">
<circle opacity="0.1" cx="92.9167" cy="125.311" r="64.6199" fill="url(#paint0_radial_532_1741)"/>
<circle opacity="0.2" cx="92.9154" cy="125.311" r="54.1507" fill="url(#paint1_radial_532_1741)"/>
<circle opacity="0.3" cx="92.9186" cy="125.312" r="44.0426" fill="url(#paint2_radial_532_1741)"/>
<circle cx="92.7343" cy="125.339" r="34.476" fill="#0146FE"/>
<path d="M107.851 120.978C108.92 120.978 109.787 121.833 109.787 122.89C109.787 131.492 103.192 138.595 94.7352 139.549V143.398C94.7352 144.453 93.8678 145.31 92.799 145.31C91.7283 145.31 90.8629 144.453 90.8629 143.398V139.549C82.4037 138.595 75.8091 131.492 75.8091 122.89C75.8091 121.833 76.6765 120.978 77.7453 120.978C78.814 120.978 79.6814 121.833 79.6814 122.89C79.6814 130.031 85.5655 135.842 92.799 135.842C100.031 135.842 105.915 130.031 105.915 122.89C105.915 121.833 106.782 120.978 107.851 120.978ZM93.1474 105.336C97.1339 105.336 100.493 107.982 101.521 111.594C101.663 112.089 101.289 112.58 100.77 112.58H98.5067C97.8232 112.58 97.2675 113.127 97.2675 113.802C97.2675 114.481 97.8232 115.028 98.5067 115.028H100.594C101.285 115.028 101.847 115.58 101.847 116.263C101.847 116.945 101.285 117.498 100.594 117.498H98.5067C97.8232 117.498 97.2675 118.047 97.2675 118.724C97.2675 119.399 97.8232 119.947 98.5067 119.947H100.594C101.285 119.947 101.847 120.5 101.847 121.184C101.847 121.865 101.285 122.418 100.594 122.418H98.5067C97.8232 122.418 97.2675 122.966 97.2675 123.643C97.2675 124.318 97.8232 124.865 98.5067 124.865H100.66C101.19 124.865 101.57 125.377 101.403 125.874C100.255 129.289 96.9945 131.752 93.1474 131.752H92.4484C87.6447 131.752 83.7511 127.907 83.7511 123.165V113.925C83.7511 109.181 87.6447 105.336 92.4484 105.336H93.1474Z" fill="white"/>
<rect opacity="0.1" x="130.505" y="117.02" width="2.00302" height="16.6806" rx="1.00151" fill="#3E7DFA"/>
<rect opacity="0.2" x="136.798" y="110.172" width="2.00302" height="30.3736" rx="1.00151" fill="#3E7DFA"/>
<rect opacity="0.3" x="143.096" y="102.328" width="2.00302" height="46.0584" rx="1.00151" fill="#3E7DFA"/>
<rect opacity="0.4" x="149.389" y="96.0312" width="2.00302" height="58.6599" rx="1.00151" fill="#3E7DFA"/>
<rect opacity="0.5" x="155.687" y="102.297" width="2.00302" height="46.1236" rx="1.00151" fill="#3E7DFA"/>
<rect opacity="0.6" x="161.98" y="110.188" width="2.00302" height="30.3445" rx="1.00151" fill="#3E7DFA"/>
<rect opacity="0.7" x="168.277" y="93.168" width="2.00302" height="64.3828" rx="1.00151" fill="#3E7DFA"/>
<rect opacity="0.8" x="174.57" y="95.8867" width="2.00302" height="58.946" rx="1.00151" fill="#3E7DFA"/>
<rect opacity="0.9" x="180.868" y="110.188" width="2.00302" height="30.3445" rx="1.00151" fill="#3E7DFA"/>
<rect x="187.161" y="102.297" width="2.00302" height="46.1236" rx="1.00151" fill="#3E7DFA"/>
<rect x="193.458" y="102.297" width="2.00302" height="46.1236" rx="1.00151" fill="#3E7DFA"/>
<rect opacity="0.9" x="199.751" y="88.1602" width="2.00302" height="74.3979" rx="1.00151" fill="#3E7DFA"/>
<rect opacity="0.8" x="206.049" y="102.297" width="2.00302" height="46.1236" rx="1.00151" fill="#3E7DFA"/>
<rect opacity="0.7" x="212.341" y="110.188" width="2.00302" height="30.3445" rx="1.00151" fill="#3E7DFA"/>
<rect opacity="0.6" x="218.639" y="117.016" width="2.00302" height="16.6895" rx="1.00151" fill="#3E7DFA"/>
<rect opacity="0.5" x="224.933" y="108.477" width="2.00302" height="33.7652" rx="1.00151" fill="#3E7DFA"/>
<rect opacity="0.4" x="231.23" y="103.324" width="2.00302" height="44.0664" rx="1.00151" fill="#3E7DFA"/>
<rect opacity="0.3" x="237.522" y="106.617" width="2.00302" height="37.4851" rx="1.00151" fill="#3E7DFA"/>
<rect opacity="0.2" x="243.821" y="110.188" width="2.00302" height="30.3445" rx="1.00151" fill="#3E7DFA"/>
<rect opacity="0.1" x="250.113" y="117.016" width="2.00302" height="16.6895" rx="1.00151" fill="#3E7DFA"/>
<g filter="url(#filter0_d_532_1741)">
<path d="M336.381 115.124C341.852 135.544 329.734 156.534 309.313 162.006C288.892 167.478 267.902 155.359 262.431 134.939C256.959 114.518 269.077 93.5278 289.498 88.056C309.919 82.5843 330.909 94.7029 336.381 115.124Z" fill="white"/>
<path d="M330.332 164.086C330.349 165.041 329.436 165.74 328.519 165.474L310.262 160.193C309.143 159.87 308.869 158.411 309.794 157.703L327.716 143.982C328.641 143.274 329.978 143.92 329.998 145.084L330.332 164.086Z" fill="white"/>
</g>
<path d="M304.536 137.062L301.456 128.316H289.414L286.333 137.062H280.883L292.602 105.438H298.332L310.03 137.062H304.536ZM300.12 123.878L297.126 115.261C297.011 114.888 296.846 114.364 296.63 113.689C296.415 113 296.2 112.303 295.984 111.599C295.769 110.881 295.589 110.278 295.446 109.79C295.302 110.379 295.122 111.039 294.907 111.772C294.706 112.49 294.505 113.165 294.304 113.797C294.117 114.429 293.973 114.917 293.873 115.261L290.857 123.878H300.12Z" fill="#001624"/>
<path d="M314.157 143.89C314.707 143.274 315.18 142.592 315.576 141.845C315.993 141.119 316.202 140.339 316.202 139.503V139.239C315.565 139.129 314.96 138.92 314.388 138.613C313.839 138.305 313.355 137.92 312.937 137.458C312.541 136.997 312.222 136.469 311.981 135.875C311.761 135.281 311.651 134.644 311.651 133.962C311.651 133.215 311.794 132.522 312.08 131.884C312.365 131.225 312.75 130.653 313.234 130.169C313.718 129.686 314.278 129.312 314.916 129.048C315.576 128.762 316.268 128.619 316.994 128.619C317.939 128.619 318.775 128.828 319.5 129.246C320.226 129.664 320.831 130.213 321.314 130.895C321.798 131.577 322.161 132.346 322.403 133.204C322.667 134.039 322.799 134.897 322.799 135.776C322.799 136.766 322.667 137.744 322.403 138.712C322.139 139.679 321.754 140.592 321.248 141.449C320.765 142.307 320.16 143.076 319.434 143.758C318.731 144.439 317.917 145 316.994 145.44L314.157 143.89Z" fill="#0146FE"/>
<defs>
<filter id="filter0_d_532_1741" x="246.392" y="86.7422" width="106.027" height="110.777" filterUnits="userSpaceOnUse" color-interpolation-filters="sRGB">
<feFlood flood-opacity="0" result="BackgroundImageFix"/>
<feColorMatrix in="SourceAlpha" type="matrix" values="0 0 0 0 0 0 0 0 0 0 0 0 0 0 0 0 0 0 127 0" result="hardAlpha"/>
<feOffset dy="17.2634"/>
<feGaussianBlur stdDeviation="7.36235"/>
<feComposite in2="hardAlpha" operator="out"/>
<feColorMatrix type="matrix" values="0 0 0 0 0.489149 0 0 0 0 0.59323 0 0 0 0 0.670833 0 0 0 0.16 0"/>
<feBlend mode="normal" in2="BackgroundImageFix" result="effect1_dropShadow_532_1741"/>
<feBlend mode="normal" in="SourceGraphic" in2="effect1_dropShadow_532_1741" result="shape"/>
</filter>
<radialGradient id="paint0_radial_532_1741" cx="0" cy="0" r="1" gradientUnits="userSpaceOnUse" gradientTransform="translate(93.1672 125.311) rotate(161.143) scale(68.5494 68.2848)">
<stop offset="0.375" stop-color="#3E7DFA" stop-opacity="0"/>
<stop offset="1" stop-color="#3E7DFA" stop-opacity="0.4"/>
</radialGradient>
<radialGradient id="paint1_radial_532_1741" cx="0" cy="0" r="1" gradientUnits="userSpaceOnUse" gradientTransform="translate(93.1253 125.311) rotate(161.143) scale(57.4436 57.2219)">
<stop offset="0.375" stop-color="#3E7DFA" stop-opacity="0"/>
<stop offset="1" stop-color="#3E7DFA" stop-opacity="0.4"/>
</radialGradient>
<radialGradient id="paint2_radial_532_1741" cx="0" cy="0" r="1" gradientUnits="userSpaceOnUse" gradientTransform="translate(93.0893 125.312) rotate(161.143) scale(46.7208 46.5405)">
<stop offset="0.375" stop-color="#3E7DFA" stop-opacity="0"/>
<stop offset="1" stop-color="#3E7DFA" stop-opacity="0.4"/>
</radialGradient>
</defs>
</svg>
