<svg width="368" height="245" viewBox="0 0 368 245" fill="none" xmlns="http://www.w3.org/2000/svg">
<path d="M64.834 193.204L9.97262 161.771C7.96526 160.615 8.21144 158.604 10.5313 157.279L68.6783 123.883C70.9981 122.548 74.511 122.407 76.5183 123.563L131.38 154.996C133.387 156.152 133.141 158.163 130.821 159.488L72.674 192.884C70.3542 194.218 66.8414 194.359 64.834 193.204Z" fill="url(#paint0_linear_532_1706)"/>
<path d="M68.2527 182.879C66.6904 182.879 65.1754 182.55 64.0297 181.892L9.16832 150.459C7.78589 149.67 7 148.448 7 147.114C7 145.601 7.99421 144.173 9.73644 143.177L67.8834 109.78C70.6956 108.164 74.8524 108.023 77.3521 109.461L132.213 140.893C133.596 141.683 134.382 142.904 134.382 144.239C134.382 145.751 133.388 147.18 131.645 148.176L73.5078 181.572C71.9929 182.437 70.0896 182.879 68.2622 182.879H68.2527ZM65.6488 179.101C67.1544 179.966 70.0612 179.815 71.8697 178.782L130.007 145.385C130.822 144.915 131.115 144.445 131.115 144.239C131.115 144.116 130.945 143.9 130.575 143.684L75.714 112.252C74.2085 111.387 71.3016 111.537 69.4931 112.571L11.3556 145.968C10.5413 146.437 10.2477 146.907 10.2477 147.114C10.2477 147.236 10.4182 147.452 10.7969 147.668L65.6583 179.101H65.6488Z" fill="url(#paint1_linear_532_1706)"/>
<path d="M98.1939 118.016C102.407 132.995 93.6292 148.672 78.1797 152.852C63.0814 157.033 47.2808 148.324 43.0673 132.995C38.8538 118.016 47.6319 102.339 63.0814 98.1586C78.1798 93.9782 93.9804 102.687 98.1939 118.016Z" fill="#0146FE"/>
<path d="M82.942 116.081L79.8369 119.894L76.7318 116.081H78.9106V115.155C78.9096 114.418 78.6165 113.712 78.0955 113.191C77.5746 112.67 76.8683 112.377 76.1316 112.376H75.2052V110.523H76.1316C77.3595 110.525 78.5368 111.013 79.4051 111.882C80.2733 112.75 80.7618 113.927 80.7633 115.155V116.081H82.942ZM64.0891 127.198H58.2217C57.8125 127.197 57.4202 127.034 57.1309 126.745C56.8416 126.456 56.6789 126.063 56.6784 125.654V113.919C56.6789 113.51 56.8416 113.118 57.1309 112.829C57.4202 112.539 57.8125 112.377 58.2217 112.376H69.9566C70.3657 112.377 70.758 112.539 71.0473 112.829C71.3366 113.118 71.4994 113.51 71.4998 113.919V119.787H73.3525V113.919C73.3516 113.019 72.9934 112.156 72.3568 111.519C71.7201 110.883 70.8569 110.524 69.9566 110.523H58.2217C57.3213 110.524 56.4581 110.883 55.8214 111.519C55.1848 112.156 54.8267 113.019 54.8257 113.919V125.654C54.8267 126.555 55.1848 127.418 55.8214 128.055C56.4581 128.691 57.3213 129.049 58.2217 129.05H64.0891V127.198ZM67.2998 119.868C67.6314 119.249 67.9079 118.602 68.1261 117.934H69.6472V116.081H65.0507L65.2878 115.842L63.3295 113.882L62.0197 115.192L62.9089 116.081H58.5311V117.934H59.9539C60.4757 119.606 61.3745 121.137 62.581 122.407C61.563 123.063 60.442 123.544 59.2647 123.829L59.7131 125.627C61.2666 125.251 62.7334 124.581 64.0335 123.652C64.0539 123.666 64.0798 123.677 64.1002 123.692C64.1245 122.788 64.4537 121.918 65.0345 121.223C65.6153 120.529 66.4135 120.052 67.2998 119.868ZM61.9215 117.934H66.153C65.6841 119.169 64.9593 120.291 64.0261 121.226C63.0965 120.293 62.3787 119.17 61.9215 117.934ZM81.119 140.166H69.2914C68.4034 140.165 67.5519 139.812 66.924 139.184C66.296 138.556 65.9428 137.705 65.9418 136.817V124.989C65.9428 124.101 66.296 123.25 66.924 122.622C67.5519 121.994 68.4034 121.641 69.2914 121.64H81.119C82.0071 121.641 82.8585 121.994 83.4865 122.622C84.1144 123.25 84.4677 124.101 84.4686 124.989V136.817C84.4677 137.705 84.1144 138.556 83.4865 139.184C82.8585 139.812 82.0071 140.165 81.119 140.166ZM69.2914 123.492C68.8946 123.493 68.5141 123.651 68.2335 123.931C67.9528 124.212 67.795 124.592 67.7945 124.989V136.817C67.795 137.214 67.9528 137.594 68.2335 137.875C68.5141 138.155 68.8946 138.313 69.2914 138.314H81.119C81.5159 138.313 81.8963 138.155 82.177 137.875C82.4576 137.594 82.6155 137.214 82.616 136.817V124.989C82.6155 124.592 82.4576 124.212 82.177 123.931C81.8963 123.651 81.5159 123.493 81.119 123.492H69.2914ZM79.1885 136.35L80.8541 135.537L75.2052 123.976L69.5564 135.537L71.2219 136.352L72.0742 134.608H78.3363L79.1885 136.35ZM72.9783 132.756L75.2052 128.198L77.4321 132.756H72.9783ZM64.0891 138.314V140.166H63.1628C61.9348 140.165 60.7576 139.676 59.8893 138.808C59.021 137.94 58.5325 136.763 58.5311 135.535V134.608H56.3523L59.4574 130.796L62.5625 134.608H60.3837V135.535C60.3847 136.271 60.6778 136.978 61.1988 137.499C61.7197 138.02 62.426 138.313 63.1628 138.314H64.0891Z" fill="white"/>
<path d="M296.106 184.326L255.172 160.866C252.658 159.429 252.978 156.91 255.872 155.251L295.394 132.602C298.3 130.943 302.689 130.754 305.192 132.202L346.125 155.663C348.64 157.099 348.319 159.618 345.425 161.278L305.903 183.926C302.997 185.586 298.609 185.774 296.106 184.326Z" fill="url(#paint2_linear_532_1706)"/>
<path d="M300.387 174.775C298.382 174.775 296.461 174.351 294.942 173.48L254.009 150.02C252.194 148.984 251.15 147.359 251.15 145.582C251.15 143.592 252.443 141.709 254.709 140.402L294.231 117.754C297.884 115.659 303.103 115.482 306.353 117.354L347.286 140.814C349.101 141.85 350.145 143.475 350.145 145.252C350.145 147.242 348.852 149.137 346.586 150.432L307.065 173.08C305.107 174.21 302.688 174.775 300.375 174.775H300.387ZM297.267 169.489C299.07 170.525 302.569 170.337 304.74 169.089L344.262 146.441C345.258 145.876 345.495 145.358 345.495 145.264C345.483 145.24 345.353 145.052 344.961 144.828L304.028 121.368C302.225 120.332 298.738 120.52 296.555 121.768L257.034 144.416C256.037 144.981 255.8 145.499 255.8 145.594C255.812 145.617 255.942 145.817 256.334 146.029L297.267 169.489Z" fill="url(#paint3_linear_532_1706)"/>
<path d="M300.547 125.467C306.022 125.467 310.458 121.065 310.458 115.634C310.458 110.203 306.022 105.801 300.547 105.801C295.073 105.801 290.636 110.203 290.636 115.634C290.636 121.065 295.073 125.467 300.547 125.467ZM307.485 127.925H306.192C304.473 128.709 302.56 129.154 300.547 129.154C298.534 129.154 296.629 128.709 294.903 127.925H293.61C287.864 127.925 283.203 132.55 283.203 138.25V141.446C283.203 143.482 284.868 145.133 286.92 145.133H314.175C316.227 145.133 317.891 143.482 317.891 141.446V138.25C317.891 132.55 313.23 127.925 307.485 127.925Z" fill="#9DB8FF"/>
<path d="M202.914 43.2036L196.686 36.2447C196.555 36.1005 196.395 35.9852 196.216 35.9061C196.037 35.827 195.844 35.7859 195.648 35.7854H184.426C183.96 35.7799 183.497 35.8655 183.064 36.0374C182.631 36.2093 182.237 36.464 181.904 36.7871C181.57 37.1102 181.304 37.4954 181.121 37.9205C180.937 38.3456 180.84 38.8024 180.834 39.2648V60.1415C180.84 60.6039 180.937 61.0607 181.121 61.4858C181.304 61.9109 181.57 62.2961 181.904 62.6192C182.237 62.9423 182.631 63.197 183.064 63.3689C183.497 63.5408 183.96 63.6264 184.426 63.6209H199.688C200.154 63.6264 200.617 63.5408 201.049 63.3689C201.482 63.197 201.876 62.9423 202.21 62.6192C202.543 62.2961 202.809 61.9109 202.993 61.4858C203.176 61.0607 203.274 60.6039 203.279 60.1415V44.1361C203.278 43.7911 203.148 43.4588 202.914 43.2036ZM194.862 38.569L200.109 44.1361H195.9C195.754 44.1273 195.61 44.0895 195.478 44.025C195.346 43.9606 195.228 43.8706 195.131 43.7605C195.035 43.6504 194.961 43.5223 194.915 43.3836C194.869 43.245 194.851 43.0986 194.862 42.953V38.569Z" fill="url(#paint4_linear_532_1706)"/>
<path d="M257.282 80.9785L252.424 75.6342C252.322 75.5234 252.197 75.4349 252.058 75.3741C251.918 75.3134 251.767 75.2818 251.615 75.2814H242.861C242.498 75.2772 242.137 75.343 241.799 75.475C241.462 75.607 241.154 75.8026 240.894 76.0508C240.634 76.2989 240.426 76.5947 240.283 76.9211C240.14 77.2476 240.064 77.5985 240.06 77.9536V93.9866C240.064 94.3417 240.14 94.6925 240.283 95.019C240.426 95.3455 240.634 95.6413 240.894 95.8894C241.154 96.1375 241.462 96.3332 241.799 96.4652C242.137 96.5972 242.498 96.6629 242.861 96.6587H254.766C255.129 96.6629 255.49 96.5972 255.828 96.4652C256.165 96.3332 256.473 96.1375 256.733 95.8894C256.993 95.6413 257.201 95.3455 257.344 95.019C257.487 94.6925 257.563 94.3417 257.567 93.9866V81.6946C257.566 81.4297 257.465 81.1745 257.282 80.9785ZM251.002 77.4192L255.094 81.6946H251.811C251.697 81.6879 251.585 81.6589 251.482 81.6094C251.379 81.5598 251.287 81.4908 251.212 81.4062C251.136 81.3216 251.079 81.2232 251.043 81.1168C251.007 81.0103 250.993 80.8979 251.002 80.7861V77.4192Z" fill="url(#paint5_linear_532_1706)"/>
<path d="M141.052 79.6308L136.194 74.2865C136.091 74.1758 135.967 74.0872 135.827 74.0265C135.688 73.9657 135.537 73.9341 135.384 73.9338H126.631C126.267 73.9296 125.906 73.9953 125.569 74.1273C125.231 74.2593 124.924 74.455 124.664 74.7031C124.403 74.9512 124.196 75.247 124.053 75.5735C123.91 75.9 123.834 76.2508 123.83 76.6059V92.6389C123.834 92.994 123.91 93.3449 124.053 93.6713C124.196 93.9978 124.403 94.2936 124.664 94.5417C124.924 94.7899 125.231 94.9855 125.569 95.1175C125.906 95.2495 126.267 95.3153 126.631 95.3111H138.535C138.899 95.3153 139.26 95.2495 139.597 95.1175C139.935 94.9855 140.242 94.7899 140.502 94.5417C140.763 94.2936 140.97 93.9978 141.113 93.6713C141.256 93.3449 141.332 92.994 141.336 92.6389V80.347C141.336 80.0821 141.234 79.8269 141.052 79.6308ZM134.771 76.0715L138.864 80.347H135.581C135.466 80.3402 135.354 80.3112 135.251 80.2617C135.148 80.2122 135.057 80.1431 134.981 80.0585C134.906 79.974 134.848 79.8756 134.812 79.7691C134.776 79.6626 134.762 79.5502 134.771 79.4384V76.0715Z" fill="url(#paint6_linear_532_1706)"/>
<path d="M211.346 137.63C211.743 137.241 211.748 136.603 211.358 136.205L205 129.713C204.609 129.315 203.971 129.307 203.575 129.696C203.178 130.084 203.172 130.722 203.563 131.121L209.214 136.891L203.466 142.521C203.069 142.91 203.064 143.548 203.454 143.946C203.844 144.344 204.482 144.352 204.879 143.964L211.346 137.63ZM156.215 137.246L210.631 137.916L210.648 135.901L156.232 135.231L156.215 137.246Z" fill="url(#paint7_linear_532_1706)"/>
<path d="M155.517 152.42C155.121 152.031 155.115 151.393 155.506 150.995L161.864 144.502C162.255 144.103 162.893 144.095 163.289 144.484C163.686 144.873 163.692 145.511 163.301 145.909L157.649 151.68L163.397 157.31C163.793 157.698 163.799 158.336 163.408 158.735C163.018 159.133 162.38 159.141 161.983 158.752L155.517 152.42ZM210.648 152.027L156.232 152.706L156.216 150.691L210.631 150.012L210.648 152.027Z" fill="url(#paint8_linear_532_1706)"/>
<defs>
<linearGradient id="paint0_linear_532_1706" x1="70.6762" y1="263.727" x2="41.3096" y2="128.038" gradientUnits="userSpaceOnUse">
<stop stop-color="#0D9AFF" stop-opacity="0.01"/>
<stop offset="1" stop-color="#0D9AFF" stop-opacity="0.12"/>
</linearGradient>
<linearGradient id="paint1_linear_532_1706" x1="20.3048" y1="169.481" x2="142.771" y2="135.322" gradientUnits="userSpaceOnUse">
<stop offset="0.158406" stop-color="#A5BDFF" stop-opacity="0.46"/>
<stop offset="1" stop-color="#A5BDFF" stop-opacity="0"/>
</linearGradient>
<linearGradient id="paint2_linear_532_1706" x1="300.649" y1="238.266" x2="278.364" y2="135.211" gradientUnits="userSpaceOnUse">
<stop stop-color="#0D9AFF" stop-opacity="0.01"/>
<stop offset="1" stop-color="#0D9AFF" stop-opacity="0.12"/>
</linearGradient>
<linearGradient id="paint3_linear_532_1706" x1="261.49" y1="164.203" x2="356.871" y2="138.001" gradientUnits="userSpaceOnUse">
<stop offset="0.158406" stop-color="#A5BDFF" stop-opacity="0.46"/>
<stop offset="1" stop-color="#A5BDFF" stop-opacity="0"/>
</linearGradient>
<linearGradient id="paint4_linear_532_1706" x1="192.057" y1="90.8852" x2="170.741" y2="45.3288" gradientUnits="userSpaceOnUse">
<stop stop-color="#0D9AFF" stop-opacity="0.47"/>
<stop offset="1" stop-color="#0D9AFF" stop-opacity="0.17"/>
</linearGradient>
<linearGradient id="paint5_linear_532_1706" x1="248.813" y1="117.597" x2="232.607" y2="82.4175" gradientUnits="userSpaceOnUse">
<stop stop-color="#0F9BFF" stop-opacity="0.38"/>
<stop offset="1" stop-color="#0D9AFF" stop-opacity="0.12"/>
<stop offset="1" stop-color="#0D9AFF" stop-opacity="0.52"/>
</linearGradient>
<linearGradient id="paint6_linear_532_1706" x1="132.583" y1="116.25" x2="116.376" y2="81.0699" gradientUnits="userSpaceOnUse">
<stop stop-color="#0F9BFF" stop-opacity="0.38"/>
<stop offset="1" stop-color="#0D9AFF" stop-opacity="0.12"/>
<stop offset="1" stop-color="#0D9AFF" stop-opacity="0.52"/>
</linearGradient>
<linearGradient id="paint7_linear_532_1706" x1="210.639" y1="136.899" x2="152.374" y2="136.431" gradientUnits="userSpaceOnUse">
<stop stop-color="#0146FE"/>
<stop offset="1" stop-color="#0146FE" stop-opacity="0"/>
</linearGradient>
<linearGradient id="paint8_linear_532_1706" x1="156.224" y1="151.688" x2="214.489" y2="151.226" gradientUnits="userSpaceOnUse">
<stop stop-color="#0146FE"/>
<stop offset="1" stop-color="#0146FE" stop-opacity="0"/>
</linearGradient>
</defs>
</svg>
